<?xml version="1.0" encoding="utf-8"?>
<!-- Generator: Adobe Illustrator 23.0.1, SVG Export Plug-In . SVG Version: 6.00 Build 0)  -->
<svg version="1.1" id="Слой_1" xmlns="http://www.w3.org/2000/svg" xmlns:xlink="http://www.w3.org/1999/xlink" x="0px" y="0px"
	 viewBox="0 0 2171 800" style="enable-background:new 0 0 2171 800;" xml:space="preserve">
<style type="text/css">
	.st0{opacity:0.9;fill:#5D7BAE;}
	.st1{opacity:0.8;fill:#5DA0DF;}
	.st2{fill:none;}
</style>
<title>logo_800</title>
<polyline class="st0" points="1072.6,224.9 1424.1,224.9 1124.4,686 773.1,686 1072.6,224.9 1072.6,224.9 "/>
<polyline class="st1" points="1025.8,122.6 1377.3,122.6 1077.7,583.7 726.3,583.7 1025.8,122.6 1025.8,122.6 "/>
<g>
	<polyline points="352,333 316,333 316,440.8 269,511.9 269,333 211.2,333 211.2,297 375.8,297 	"/>
	<line class="st2" x1="211.2" y1="404" x2="375.8" y2="404"/>
	<polygon points="485.9,297.1 438.1,368 438.1,511.8 485.9,511.8 	"/>
	<polygon points="562,510.9 562,297.1 622,297.1 682,428 743,297.1 803,297.1 803,511.8 755.1,511.8 755.1,369 682.1,500 
		610.1,368.9 610.1,439.8 	"/>
	<path d="M865,369l48-72v131.3c0,0,0,47.7,48.4,47.7s48.6-48.3,48.6-48.3V297h48v131.2c0,0,1.6,83.7-96.5,83.7S865,428.3,865,428.3
		V369z"/>
	<polygon points="1127,297 1175,297 1175,476.9 1260.8,476.9 1237.1,511.9 1127,511.9 	"/>
	<polygon points="1950.1,297.1 1950.1,332.9 1854,332.9 1854,381.1 1939.1,381.1 1914.3,415.9 1854,415.9 1854,512 1806.1,512 
		1806.1,297.1 	"/>
	<polygon points="2064.9,333 2006.1,333 2006.1,297.1 2171,297.1 2147.1,333 2111.9,333 2111.9,512 2065.1,512 	"/>
	<path d="M1478.9,321.3l-24.5,35.8l-58.5-24l-2,0.1c0,0-21.8,1.5-21.8,22.5s33.9,32.5,33.9,32.5s30.8,7.9,50,24s22.1,27.5,22.1,39.8
		s-1.3,28.9-23,44.3s-53.3,15.8-59.4,15.8c-17.8,0.2-35.4-3.2-51.9-9.9c-25.1-10.1-30.9-13.8-30.9-13.8l23.9-36.1l58.5,23.9h6.3
		c0,0,29.5-1.1,29.5-23.1s-36.3-33-36.3-33s-42.6-10-59-32.6c-6.3-8.6-11-15.4-11-29.5s5.5-38.8,35.1-51.6c8.4-3.6,18.4-9,34.8-9
		s42.5,9.4,48.4,11.1S1478.9,321.3,1478.9,321.3z"/>
	<path d="M141,356.8L82.5,333h-2.9c0,0-20.6,3.3-20.6,22.3s21.9,29.5,41.8,35.9s31.8,11.4,48.3,26s16,29.6,16,34.1
		s0.8,31.5-25.1,45.9c-25.9,14.4-47.8,14.8-56.4,14.8s-35.8-2.8-52.8-9.9S0,488.3,0,488.3l24.3-36l61.3,24.5h5.6
		c0,0,27.1-2.9,27.1-22.3s-18.1-28.9-42.4-36.5S12,393.1,12,357.9S45.1,297,82.5,297c25,0,82.5,23.9,82.5,23.9L141,356.8z"/>
	<path d="M1642,299h-7.3c0,0-97.8,1.8-97.8,99.3v11.8c0,0-3.8,85.9,91.7,97.8c1.3,0.2,19.2,0,19.2,0s92.2-6.5,92.2-95.8
		S1693.7,304.7,1642,299z M1638.4,474c-31.3,0-56.6-31.3-56.6-70s25.3-70,56.6-70s56.6,31.3,56.6,70S1669.7,474,1638.4,474z"/>
</g>
</svg>
