<?xml version="1.0" encoding="utf-8"?>
<!-- Generator: Adobe Illustrator 23.0.1, SVG Export Plug-In . SVG Version: 6.00 Build 0)  -->
<svg version="1.1" id="Слой_1" xmlns="http://www.w3.org/2000/svg" xmlns:xlink="http://www.w3.org/1999/xlink" x="0px" y="0px"
	 viewBox="0 0 16 16" style="enable-background:new 0 0 16 16;" xml:space="preserve">
<style type="text/css">
	.st0{fill:#6F6F6F;}
</style>
<path class="st0" d="M9,0C5.2,0,2,3.1,2,7c0,1.4,0.4,2.8,1.2,3.9L2,12l-2,2c0.4,2,2,1.9,2,1.9l3.1-3.2C6.3,13.5,7.6,14,9,14
	c3.9,0,7-3.1,7-7C16,3.1,12.9,0,9,0z M9,13c-3.3,0-6-2.7-6-6c0-3.3,2.7-6,6-6s6,2.7,6,6C15,10.3,12.3,13,9,13z"/>
</svg>
